<?xml version="1.0" encoding="UTF-8" standalone="no"?>
<!DOCTYPE svg PUBLIC "-//W3C//DTD SVG 20010904//EN"
              "http://www.w3.org/TR/2001/REC-SVG-20010904/DTD/svg10.dtd">

<svg xmlns="http://www.w3.org/2000/svg"
     width="0.216667in" height="0.27in"
     viewBox="0 0 65 81">
  <path id="Selection"
        fill="white" stroke="white" stroke-width="1"
        d="M 31.00,33.00
           C 31.00,33.00 54.00,33.00 54.00,33.00
             57.54,33.07 60.04,33.18 62.49,36.15
             65.25,39.48 64.99,43.94 65.00,48.00
             65.01,55.45 67.08,74.89 60.87,79.40
             58.30,81.27 55.01,80.99 52.00,81.00
             52.00,81.00 18.00,81.00 18.00,81.00
             13.97,81.00 6.42,81.68 3.23,79.26
             -0.39,76.53 0.01,72.03 0.00,68.00
             0.00,68.00 0.00,11.00 0.00,11.00
             0.14,0.85 3.94,0.01 13.00,0.00
             13.00,0.00 65.00,0.00 65.00,0.00
             65.00,0.00 65.00,16.00 65.00,16.00
             65.00,16.00 17.00,16.00 17.00,16.00
             17.00,16.00 17.00,65.00 17.00,65.00
             17.00,65.00 48.00,65.00 48.00,65.00
             48.00,65.00 48.00,49.00 48.00,49.00
             48.00,49.00 26.00,49.00 26.00,49.00
             26.00,49.00 31.00,33.00 31.00,33.00 Z" />
</svg>
