<?xml version="1.0" encoding="UTF-8" standalone="no"?>
<!DOCTYPE svg PUBLIC "-//W3C//DTD SVG 20010904//EN"
              "http://www.w3.org/TR/2001/REC-SVG-20010904/DTD/svg10.dtd">

<svg xmlns="http://www.w3.org/2000/svg"
     width="1.48333in" height="0.616667in"
     viewBox="0 0 445 185">
  <path id="Selection"
        fill="none" stroke="black" stroke-width="1"
        d="M 12.00,0.00
           C 12.00,0.00 72.00,0.00 72.00,0.00
             72.00,0.00 72.00,16.00 72.00,16.00
             72.00,16.00 50.00,16.00 50.00,16.00
             50.00,16.00 50.00,81.00 50.00,81.00
             50.00,81.00 33.00,81.00 33.00,81.00
             33.00,81.00 33.00,16.00 33.00,16.00
             33.00,16.00 12.00,16.00 12.00,16.00
             12.00,16.00 12.00,0.00 12.00,0.00 Z
           M 259.00,33.00
           C 259.00,33.00 282.00,33.00 282.00,33.00
             285.54,33.07 288.04,33.18 290.49,36.15
             293.25,39.48 292.99,43.94 293.00,48.00
             293.01,55.45 295.08,74.89 288.87,79.40
             286.30,81.27 283.01,80.99 280.00,81.00
             280.00,81.00 246.00,81.00 246.00,81.00
             241.97,81.00 234.42,81.68 231.23,79.26
             227.61,76.53 228.01,72.03 228.00,68.00
             228.00,68.00 228.00,11.00 228.00,11.00
             228.14,0.85 231.94,0.01 241.00,0.00
             241.00,0.00 293.00,0.00 293.00,0.00
             293.00,0.00 293.00,16.00 293.00,16.00
             293.00,16.00 245.00,16.00 245.00,16.00
             245.00,16.00 245.00,65.00 245.00,65.00
             245.00,65.00 276.00,65.00 276.00,65.00
             276.00,65.00 276.00,49.00 276.00,49.00
             276.00,49.00 254.00,49.00 254.00,49.00
             254.00,49.00 259.00,33.00 259.00,33.00 Z
           M 82.00,15.00
           C 82.00,15.00 96.00,15.00 96.00,15.00
             96.00,15.00 96.00,42.00 96.00,42.00
             96.00,42.00 121.00,42.00 121.00,42.00
             121.00,42.00 121.00,15.00 121.00,15.00
             121.00,15.00 135.00,15.00 135.00,15.00
             135.00,15.00 135.00,81.00 135.00,81.00
             135.00,81.00 121.00,81.00 121.00,81.00
             121.00,81.00 121.00,55.00 121.00,55.00
             121.00,55.00 96.00,55.00 96.00,55.00
             96.00,55.00 96.00,81.00 96.00,81.00
             96.00,81.00 82.00,81.00 82.00,81.00
             82.00,81.00 82.00,15.00 82.00,15.00 Z
           M 188.00,81.00
           C 188.00,81.00 156.00,81.00 156.00,81.00
             153.01,81.00 148.84,81.31 146.43,79.26
             143.59,76.85 144.01,72.37 144.00,69.00
             144.00,69.00 144.00,32.00 144.00,32.00
             144.00,28.22 143.31,20.29 145.74,17.43
             148.15,14.59 152.63,15.01 156.00,15.00
             156.00,15.00 188.00,15.00 188.00,15.00
             188.00,15.00 188.00,28.00 188.00,28.00
             188.00,28.00 158.00,28.00 158.00,28.00
             158.00,28.00 158.00,42.00 158.00,42.00
             158.00,42.00 175.00,42.00 175.00,42.00
             174.47,45.42 173.01,52.82 169.61,54.43
             167.79,55.29 160.40,55.00 158.00,55.00
             158.00,55.00 158.00,68.00 158.00,68.00
             158.00,68.00 188.00,68.00 188.00,68.00
             188.00,68.00 188.00,81.00 188.00,81.00 Z
           M 303.00,15.00
           C 303.00,15.00 317.00,15.00 317.00,15.00
             317.00,15.00 317.00,81.00 317.00,81.00
             317.00,81.00 303.00,81.00 303.00,81.00
             303.00,81.00 303.00,15.00 303.00,15.00 Z
           M 364.00,55.00
           C 364.00,55.00 335.00,55.00 335.00,55.00
             332.06,54.96 328.83,55.02 326.74,52.57
             324.69,50.16 325.00,45.99 325.00,43.00
             325.00,43.00 325.00,25.00 325.00,25.00
             325.04,22.44 324.98,19.50 326.74,17.43
             329.15,14.59 333.63,15.01 337.00,15.00
             337.00,15.00 378.00,15.00 378.00,15.00
             377.52,18.08 376.11,25.14 373.49,26.98
             371.71,28.23 368.14,28.00 366.00,28.00
             366.00,28.00 339.00,28.00 339.00,28.00
             339.00,28.00 339.00,42.00 339.00,42.00
             339.00,42.00 368.00,42.00 368.00,42.00
             370.94,42.04 374.17,41.98 376.26,44.43
             378.31,46.84 378.00,51.01 378.00,54.00
             378.01,58.93 379.04,75.31 376.26,78.57
             373.85,81.41 369.37,80.99 366.00,81.00
             366.00,81.00 325.00,81.00 325.00,81.00
             325.00,81.00 325.00,68.00 325.00,68.00
             325.00,68.00 364.00,67.00 364.00,67.00
             364.00,67.00 364.00,55.00 364.00,55.00 Z
           M 387.00,15.00
           C 387.00,15.00 436.00,15.00 436.00,15.00
             436.00,15.00 436.00,28.00 436.00,28.00
             436.00,28.00 418.00,28.00 418.00,28.00
             418.00,28.00 418.00,81.00 418.00,81.00
             418.00,81.00 404.00,81.00 404.00,81.00
             404.00,81.00 404.00,28.00 404.00,28.00
             404.00,28.00 387.00,28.00 387.00,28.00
             387.00,28.00 387.00,15.00 387.00,15.00 Z
           M 146.00,105.00
           C 146.00,105.00 163.00,105.00 163.00,105.00
             163.00,105.00 163.00,185.00 163.00,185.00
             163.00,185.00 146.00,185.00 146.00,185.00
             146.00,185.00 146.00,105.00 146.00,105.00 Z
           M 173.00,105.00
           C 173.00,105.00 233.00,105.00 233.00,105.00
             233.00,105.00 233.00,121.00 233.00,121.00
             233.00,121.00 211.00,121.00 211.00,121.00
             211.00,121.00 211.00,185.00 211.00,185.00
             211.00,185.00 194.00,185.00 194.00,185.00
             194.00,185.00 194.00,121.00 194.00,121.00
             194.00,121.00 173.00,121.00 173.00,121.00
             173.00,121.00 173.00,105.00 173.00,105.00 Z
           M 322.00,154.00
           C 322.00,154.00 292.00,154.00 292.00,154.00
             288.43,154.00 281.06,154.49 278.11,152.83
             274.19,150.63 274.06,146.97 274.00,143.00
             274.00,143.00 274.00,116.00 274.00,116.00
             274.05,112.86 274.04,109.82 276.43,107.43
             279.22,104.64 283.38,105.01 287.00,105.00
             287.00,105.00 339.00,105.00 339.00,105.00
             339.00,105.00 333.30,120.01 333.30,120.01
             333.30,120.01 321.00,121.00 321.00,121.00
             321.00,121.00 291.00,121.00 291.00,121.00
             291.00,121.00 291.00,138.00 291.00,138.00
             291.00,138.00 327.00,138.00 327.00,138.00
             329.79,138.02 332.48,137.86 334.87,139.60
             341.08,144.11 339.01,163.55 339.00,171.00
             338.99,174.80 339.27,179.70 336.49,182.69
             333.98,185.37 330.35,184.99 327.00,185.00
             327.00,185.00 274.00,185.00 274.00,185.00
             274.00,185.00 274.00,170.00 274.00,170.00
             274.00,170.00 322.00,169.00 322.00,169.00
             322.00,169.00 322.00,154.00 322.00,154.00 Z
           M 4.11,120.74
           C 9.88,119.28 33.45,119.99 41.00,120.00
             43.99,120.00 48.16,119.69 50.57,121.74
             53.41,124.15 52.99,128.63 53.00,132.00
             53.00,132.00 53.00,168.00 53.00,168.00
             53.00,171.36 53.53,180.13 51.83,182.69
             49.97,185.47 45.94,184.99 43.00,185.00
             43.00,185.00 14.00,185.00 14.00,185.00
             11.26,185.00 4.54,185.43 2.43,183.98
             -0.08,182.25 0.04,178.70 0.00,176.00
             0.00,176.00 0.00,132.00 0.00,132.00
             0.01,126.80 -0.70,123.79 4.11,120.74 Z
           M 62.00,185.00
           C 62.00,185.00 62.00,131.00 62.00,131.00
             62.05,121.67 63.67,120.05 73.00,120.00
             73.00,120.00 106.00,120.00 106.00,120.00
             106.00,120.00 106.00,133.00 106.00,133.00
             106.00,133.00 76.00,133.00 76.00,133.00
             76.00,133.00 76.00,147.00 76.00,147.00
             76.00,147.00 93.00,147.00 93.00,147.00
             92.47,150.42 91.01,157.82 87.61,159.43
             85.79,160.29 78.40,160.00 76.00,160.00
             76.00,160.00 76.00,185.00 76.00,185.00
             76.00,185.00 62.00,185.00 62.00,185.00 Z
           M 393.00,185.00
           C 393.00,185.00 359.00,185.00 359.00,185.00
             356.47,184.99 352.64,185.34 350.74,183.40
             348.68,181.29 349.00,176.77 349.00,174.00
             349.00,174.00 349.00,130.00 349.00,130.00
             349.11,121.96 350.96,120.11 359.00,120.00
             359.00,120.00 393.00,120.00 393.00,120.00
             393.00,120.00 393.00,133.00 393.00,133.00
             393.00,133.00 363.00,133.00 363.00,133.00
             363.00,133.00 363.00,147.00 363.00,147.00
             363.00,147.00 380.00,147.00 380.00,147.00
             379.47,150.42 378.01,157.82 374.61,159.43
             372.79,160.29 365.40,160.00 363.00,160.00
             363.00,160.00 363.00,173.00 363.00,173.00
             363.00,173.00 393.00,173.00 393.00,173.00
             393.00,173.00 393.00,185.00 393.00,185.00 Z
           M 445.00,185.00
           C 445.00,185.00 412.00,185.00 412.00,185.00
             409.47,184.99 405.64,185.34 403.74,183.40
             401.68,181.29 402.00,176.77 402.00,174.00
             402.00,174.00 402.00,130.00 402.00,130.00
             402.11,121.96 403.96,120.11 412.00,120.00
             412.00,120.00 445.00,120.00 445.00,120.00
             444.93,123.30 444.60,128.91 442.16,131.40
             440.23,133.37 436.56,132.99 434.00,133.00
             434.00,133.00 416.00,133.00 416.00,133.00
             416.00,133.00 416.00,173.00 416.00,173.00
             416.00,173.00 445.00,173.00 445.00,173.00
             445.00,173.00 445.00,185.00 445.00,185.00 Z
           M 39.00,133.00
           C 39.00,133.00 14.00,133.00 14.00,133.00
             14.00,133.00 14.00,173.00 14.00,173.00
             14.00,173.00 39.00,173.00 39.00,173.00
             39.00,173.00 39.00,133.00 39.00,133.00 Z" />
</svg>
